<svg xmlns="http://www.w3.org/2000/svg" xmlns:xlink="http://www.w3.org/1999/xlink" width="300" zoomAndPan="magnify" viewBox="0 0 224.87999 74.999997" height="100" preserveAspectRatio="xMidYMid meet" version="1.0"><defs><g/><clipPath id="63742216b8"><rect x="0" width="132" y="0" height="55"/></clipPath></defs><g transform="matrix(1, 0, 0, 1, 46, 10)"><g clip-path="url(#63742216b8)"><g fill="#ffffff" fill-opacity="1"><g transform="translate(0.898705, 25.417094)"><g><path d="M 7.9375 0 L 3.171875 0 L 3.171875 -3.21875 L 7.734375 -3.21875 C 8.960938 -3.21875 9.976562 -3.441406 10.78125 -3.890625 C 11.59375 -4.335938 12.191406 -5.007812 12.578125 -5.90625 C 12.972656 -6.800781 13.171875 -7.90625 13.171875 -9.21875 C 13.171875 -10.519531 12.972656 -11.613281 12.578125 -12.5 C 12.191406 -13.382812 11.59375 -14.050781 10.78125 -14.5 C 9.976562 -14.957031 8.972656 -15.1875 7.765625 -15.1875 L 3.09375 -15.1875 L 3.09375 -18.40625 L 8 -18.40625 C 9.84375 -18.40625 11.4375 -18.03125 12.78125 -17.28125 C 14.125 -16.539062 15.160156 -15.484375 15.890625 -14.109375 C 16.628906 -12.734375 17 -11.101562 17 -9.21875 C 17 -7.320312 16.632812 -5.679688 15.90625 -4.296875 C 15.175781 -2.921875 14.132812 -1.859375 12.78125 -1.109375 C 11.425781 -0.367188 9.8125 0 7.9375 0 Z M 5.21875 -18.40625 L 5.21875 0 L 1.4375 0 L 1.4375 -18.40625 Z M 5.21875 -18.40625 "/></g></g></g><g fill="#ffffff" fill-opacity="1"><g transform="translate(17.172213, 25.417094)"><g><path d="M 1.4375 0 L 1.4375 -18.40625 L 5.21875 -18.40625 L 5.21875 -3.21875 L 13.5 -3.21875 L 13.5 0 Z M 1.4375 0 "/></g></g></g><g fill="#ffffff" fill-opacity="1"><g transform="translate(29.729117, 25.417094)"><g><path d="M 8.34375 0.28125 C 6.800781 0.28125 5.472656 0.0390625 4.359375 -0.4375 C 3.253906 -0.925781 2.40625 -1.640625 1.8125 -2.578125 C 1.21875 -3.515625 0.914062 -4.644531 0.90625 -5.96875 L 4.578125 -5.96875 C 4.597656 -5.3125 4.765625 -4.75 5.078125 -4.28125 C 5.390625 -3.8125 5.820312 -3.453125 6.375 -3.203125 C 6.9375 -2.960938 7.597656 -2.84375 8.359375 -2.84375 C 9.054688 -2.84375 9.664062 -2.941406 10.1875 -3.140625 C 10.707031 -3.335938 11.109375 -3.613281 11.390625 -3.96875 C 11.679688 -4.320312 11.828125 -4.734375 11.828125 -5.203125 C 11.828125 -5.609375 11.710938 -5.957031 11.484375 -6.25 C 11.253906 -6.539062 10.898438 -6.789062 10.421875 -7 C 9.941406 -7.21875 9.320312 -7.410156 8.5625 -7.578125 L 6.609375 -8.015625 C 4.847656 -8.410156 3.519531 -9.023438 2.625 -9.859375 C 1.738281 -10.703125 1.296875 -11.785156 1.296875 -13.109375 C 1.296875 -14.222656 1.585938 -15.195312 2.171875 -16.03125 C 2.753906 -16.875 3.570312 -17.523438 4.625 -17.984375 C 5.675781 -18.453125 6.890625 -18.6875 8.265625 -18.6875 C 9.671875 -18.6875 10.882812 -18.445312 11.90625 -17.96875 C 12.9375 -17.5 13.734375 -16.828125 14.296875 -15.953125 C 14.867188 -15.085938 15.171875 -14.050781 15.203125 -12.84375 L 11.640625 -12.84375 C 11.566406 -13.695312 11.234375 -14.359375 10.640625 -14.828125 C 10.046875 -15.304688 9.257812 -15.546875 8.28125 -15.546875 C 7.65625 -15.546875 7.101562 -15.453125 6.625 -15.265625 C 6.144531 -15.078125 5.769531 -14.8125 5.5 -14.46875 C 5.238281 -14.132812 5.109375 -13.742188 5.109375 -13.296875 C 5.109375 -12.898438 5.222656 -12.5625 5.453125 -12.28125 C 5.679688 -12.007812 6.023438 -11.769531 6.484375 -11.5625 C 6.953125 -11.363281 7.535156 -11.1875 8.234375 -11.03125 L 9.984375 -10.640625 C 10.910156 -10.441406 11.722656 -10.1875 12.421875 -9.875 C 13.128906 -9.570312 13.71875 -9.207031 14.1875 -8.78125 C 14.664062 -8.351562 15.019531 -7.859375 15.25 -7.296875 C 15.488281 -6.734375 15.609375 -6.097656 15.609375 -5.390625 C 15.609375 -4.222656 15.316406 -3.210938 14.734375 -2.359375 C 14.148438 -1.515625 13.316406 -0.863281 12.234375 -0.40625 C 11.148438 0.0507812 9.851562 0.28125 8.34375 0.28125 Z M 8.34375 0.28125 "/></g></g></g><g fill="#ffffff" fill-opacity="1"><g transform="translate(0.898705, 48.329007)"><g><path d="M 1.4375 0 L 1.4375 -18.40625 L 14.453125 -18.40625 L 14.453125 -15.1875 L 5.21875 -15.1875 L 5.21875 -10.875 L 13.75 -10.875 L 13.75 -7.71875 L 5.21875 -7.71875 L 5.21875 -3.21875 L 14.453125 -3.21875 L 14.453125 0 Z M 1.4375 0 "/></g></g></g><g fill="#ffffff" fill-opacity="1"><g transform="translate(14.702709, 48.329007)"><g><path d="M 7.375 0.296875 C 6.050781 0.296875 4.894531 0.0078125 3.90625 -0.5625 C 2.914062 -1.144531 2.144531 -1.953125 1.59375 -2.984375 C 1.050781 -4.023438 0.78125 -5.222656 0.78125 -6.578125 C 0.78125 -7.953125 1.050781 -9.15625 1.59375 -10.1875 C 2.144531 -11.226562 2.914062 -12.035156 3.90625 -12.609375 C 4.894531 -13.191406 6.050781 -13.484375 7.375 -13.484375 C 8.21875 -13.484375 9 -13.359375 9.71875 -13.109375 C 10.4375 -12.867188 11.0625 -12.523438 11.59375 -12.078125 C 12.132812 -11.628906 12.566406 -11.097656 12.890625 -10.484375 C 13.222656 -9.867188 13.425781 -9.1875 13.5 -8.4375 L 10 -8.296875 C 9.945312 -8.640625 9.847656 -8.945312 9.703125 -9.21875 C 9.566406 -9.5 9.390625 -9.738281 9.171875 -9.9375 C 8.953125 -10.132812 8.695312 -10.285156 8.40625 -10.390625 C 8.113281 -10.492188 7.785156 -10.546875 7.421875 -10.546875 C 6.796875 -10.546875 6.265625 -10.382812 5.828125 -10.0625 C 5.390625 -9.738281 5.050781 -9.28125 4.8125 -8.6875 C 4.582031 -8.09375 4.46875 -7.390625 4.46875 -6.578125 C 4.46875 -5.785156 4.582031 -5.09375 4.8125 -4.5 C 5.050781 -3.914062 5.390625 -3.457031 5.828125 -3.125 C 6.265625 -2.800781 6.796875 -2.640625 7.421875 -2.640625 C 7.785156 -2.640625 8.109375 -2.691406 8.390625 -2.796875 C 8.679688 -2.910156 8.929688 -3.066406 9.140625 -3.265625 C 9.359375 -3.460938 9.535156 -3.703125 9.671875 -3.984375 C 9.816406 -4.265625 9.925781 -4.582031 10 -4.9375 L 13.515625 -4.796875 C 13.453125 -4.046875 13.257812 -3.359375 12.9375 -2.734375 C 12.613281 -2.117188 12.179688 -1.582031 11.640625 -1.125 C 11.097656 -0.675781 10.460938 -0.328125 9.734375 -0.078125 C 9.015625 0.171875 8.226562 0.296875 7.375 0.296875 Z M 7.375 0.296875 "/></g></g></g><g fill="#ffffff" fill-opacity="1"><g transform="translate(27.358393, 48.329007)"><g><path d="M 7.4375 0.296875 C 6.101562 0.296875 4.9375 0.0078125 3.9375 -0.5625 C 2.945312 -1.144531 2.171875 -1.945312 1.609375 -2.96875 C 1.054688 -4 0.78125 -5.203125 0.78125 -6.578125 C 0.78125 -7.960938 1.054688 -9.171875 1.609375 -10.203125 C 2.171875 -11.242188 2.945312 -12.050781 3.9375 -12.625 C 4.9375 -13.195312 6.101562 -13.484375 7.4375 -13.484375 C 8.769531 -13.484375 9.929688 -13.195312 10.921875 -12.625 C 11.921875 -12.050781 12.695312 -11.242188 13.25 -10.203125 C 13.8125 -9.171875 14.09375 -7.960938 14.09375 -6.578125 C 14.09375 -5.203125 13.8125 -4 13.25 -2.96875 C 12.695312 -1.945312 11.921875 -1.144531 10.921875 -0.5625 C 9.929688 0.0078125 8.769531 0.296875 7.4375 0.296875 Z M 7.4375 -2.65625 C 8.039062 -2.65625 8.5625 -2.816406 9 -3.140625 C 9.445312 -3.460938 9.789062 -3.914062 10.03125 -4.5 C 10.28125 -5.09375 10.40625 -5.785156 10.40625 -6.578125 C 10.40625 -7.398438 10.28125 -8.101562 10.03125 -8.6875 C 9.789062 -9.28125 9.445312 -9.734375 9 -10.046875 C 8.5625 -10.367188 8.039062 -10.53125 7.4375 -10.53125 C 6.832031 -10.53125 6.304688 -10.367188 5.859375 -10.046875 C 5.421875 -9.734375 5.078125 -9.28125 4.828125 -8.6875 C 4.585938 -8.101562 4.46875 -7.398438 4.46875 -6.578125 C 4.46875 -5.785156 4.585938 -5.09375 4.828125 -4.5 C 5.078125 -3.914062 5.421875 -3.460938 5.859375 -3.140625 C 6.304688 -2.816406 6.832031 -2.65625 7.4375 -2.65625 Z M 7.4375 -2.65625 "/></g></g></g><g fill="#ffffff" fill-opacity="1"><g transform="translate(40.656148, 48.329007)"><g><path d="M 1.359375 0 L 1.359375 -13.21875 L 4.84375 -13.21875 L 4.875 -10.171875 L 4.65625 -10.171875 C 4.875 -10.921875 5.191406 -11.539062 5.609375 -12.03125 C 6.035156 -12.519531 6.523438 -12.878906 7.078125 -13.109375 C 7.628906 -13.347656 8.210938 -13.46875 8.828125 -13.46875 C 9.816406 -13.46875 10.664062 -13.171875 11.375 -12.578125 C 12.082031 -11.992188 12.523438 -11.171875 12.703125 -10.109375 L 12.3125 -10.109375 C 12.488281 -10.828125 12.789062 -11.4375 13.21875 -11.9375 C 13.65625 -12.4375 14.179688 -12.816406 14.796875 -13.078125 C 15.410156 -13.335938 16.070312 -13.46875 16.78125 -13.46875 C 17.613281 -13.46875 18.359375 -13.285156 19.015625 -12.921875 C 19.679688 -12.554688 20.203125 -12.023438 20.578125 -11.328125 C 20.960938 -10.640625 21.15625 -9.796875 21.15625 -8.796875 L 21.15625 0 L 17.515625 0 L 17.515625 -8.109375 C 17.515625 -8.890625 17.300781 -9.472656 16.875 -9.859375 C 16.457031 -10.253906 15.929688 -10.453125 15.296875 -10.453125 C 14.835938 -10.453125 14.4375 -10.347656 14.09375 -10.140625 C 13.75 -9.929688 13.484375 -9.644531 13.296875 -9.28125 C 13.109375 -8.914062 13.015625 -8.488281 13.015625 -8 L 13.015625 0 L 9.5 0 L 9.5 -8.21875 C 9.5 -8.894531 9.296875 -9.4375 8.890625 -9.84375 C 8.484375 -10.25 7.960938 -10.453125 7.328125 -10.453125 C 6.898438 -10.453125 6.507812 -10.347656 6.15625 -10.140625 C 5.800781 -9.941406 5.519531 -9.648438 5.3125 -9.265625 C 5.101562 -8.878906 5 -8.40625 5 -7.84375 L 5 0 Z M 1.359375 0 "/></g></g></g><g fill="#ffffff" fill-opacity="1"><g transform="translate(61.597019, 48.329007)"><g><path d="M 1.359375 0 L 1.359375 -13.21875 L 4.84375 -13.21875 L 4.875 -10.171875 L 4.65625 -10.171875 C 4.875 -10.921875 5.191406 -11.539062 5.609375 -12.03125 C 6.035156 -12.519531 6.523438 -12.878906 7.078125 -13.109375 C 7.628906 -13.347656 8.210938 -13.46875 8.828125 -13.46875 C 9.816406 -13.46875 10.664062 -13.171875 11.375 -12.578125 C 12.082031 -11.992188 12.523438 -11.171875 12.703125 -10.109375 L 12.3125 -10.109375 C 12.488281 -10.828125 12.789062 -11.4375 13.21875 -11.9375 C 13.65625 -12.4375 14.179688 -12.816406 14.796875 -13.078125 C 15.410156 -13.335938 16.070312 -13.46875 16.78125 -13.46875 C 17.613281 -13.46875 18.359375 -13.285156 19.015625 -12.921875 C 19.679688 -12.554688 20.203125 -12.023438 20.578125 -11.328125 C 20.960938 -10.640625 21.15625 -9.796875 21.15625 -8.796875 L 21.15625 0 L 17.515625 0 L 17.515625 -8.109375 C 17.515625 -8.890625 17.300781 -9.472656 16.875 -9.859375 C 16.457031 -10.253906 15.929688 -10.453125 15.296875 -10.453125 C 14.835938 -10.453125 14.4375 -10.347656 14.09375 -10.140625 C 13.75 -9.929688 13.484375 -9.644531 13.296875 -9.28125 C 13.109375 -8.914062 13.015625 -8.488281 13.015625 -8 L 13.015625 0 L 9.5 0 L 9.5 -8.21875 C 9.5 -8.894531 9.296875 -9.4375 8.890625 -9.84375 C 8.484375 -10.25 7.960938 -10.453125 7.328125 -10.453125 C 6.898438 -10.453125 6.507812 -10.347656 6.15625 -10.140625 C 5.800781 -9.941406 5.519531 -9.648438 5.3125 -9.265625 C 5.101562 -8.878906 5 -8.40625 5 -7.84375 L 5 0 Z M 1.359375 0 "/></g></g></g><g fill="#ffffff" fill-opacity="1"><g transform="translate(82.53789, 48.329007)"><g><path d="M 7.375 0.296875 C 6.03125 0.296875 4.863281 0.00390625 3.875 -0.578125 C 2.882812 -1.160156 2.117188 -1.96875 1.578125 -3 C 1.046875 -4.039062 0.78125 -5.234375 0.78125 -6.578125 C 0.78125 -7.929688 1.050781 -9.125 1.59375 -10.15625 C 2.144531 -11.195312 2.90625 -12.007812 3.875 -12.59375 C 4.84375 -13.1875 5.960938 -13.484375 7.234375 -13.484375 C 8.179688 -13.484375 9.046875 -13.320312 9.828125 -13 C 10.609375 -12.6875 11.285156 -12.226562 11.859375 -11.625 C 12.429688 -11.03125 12.875 -10.3125 13.1875 -9.46875 C 13.5 -8.632812 13.65625 -7.703125 13.65625 -6.671875 L 13.65625 -5.6875 L 2.125 -5.6875 L 2.125 -8 L 11.890625 -8 L 10.234375 -7.4375 C 10.234375 -8.113281 10.113281 -8.691406 9.875 -9.171875 C 9.644531 -9.660156 9.3125 -10.035156 8.875 -10.296875 C 8.4375 -10.566406 7.910156 -10.703125 7.296875 -10.703125 C 6.691406 -10.703125 6.164062 -10.566406 5.71875 -10.296875 C 5.28125 -10.035156 4.941406 -9.664062 4.703125 -9.1875 C 4.460938 -8.707031 4.34375 -8.132812 4.34375 -7.46875 L 4.34375 -5.875 C 4.34375 -5.164062 4.46875 -4.554688 4.71875 -4.046875 C 4.96875 -3.535156 5.328125 -3.140625 5.796875 -2.859375 C 6.265625 -2.585938 6.820312 -2.453125 7.46875 -2.453125 C 7.9375 -2.453125 8.351562 -2.519531 8.71875 -2.65625 C 9.082031 -2.789062 9.390625 -2.984375 9.640625 -3.234375 C 9.890625 -3.484375 10.070312 -3.773438 10.1875 -4.109375 L 13.515625 -3.96875 C 13.335938 -3.125 12.960938 -2.382812 12.390625 -1.75 C 11.828125 -1.113281 11.113281 -0.613281 10.25 -0.25 C 9.382812 0.113281 8.425781 0.296875 7.375 0.296875 Z M 7.375 0.296875 "/></g></g></g><g fill="#ffffff" fill-opacity="1"><g transform="translate(95.354092, 48.329007)"><g><path d="M 1.359375 0 L 1.359375 -13.21875 L 4.875 -13.21875 L 4.875 -10.9375 L 4.9375 -10.9375 C 5.175781 -11.75 5.5625 -12.347656 6.09375 -12.734375 C 6.625 -13.128906 7.3125 -13.328125 8.15625 -13.328125 C 8.363281 -13.328125 8.5625 -13.320312 8.75 -13.3125 C 8.9375 -13.300781 9.101562 -13.285156 9.25 -13.265625 L 9.25 -10.125 C 9.113281 -10.144531 8.894531 -10.164062 8.59375 -10.1875 C 8.289062 -10.207031 7.988281 -10.21875 7.6875 -10.21875 C 7.175781 -10.21875 6.710938 -10.097656 6.296875 -9.859375 C 5.890625 -9.628906 5.570312 -9.296875 5.34375 -8.859375 C 5.113281 -8.421875 5 -7.878906 5 -7.234375 L 5 0 Z M 1.359375 0 "/></g></g></g><g fill="#ffffff" fill-opacity="1"><g transform="translate(103.181816, 48.329007)"><g><path d="M 7.375 0.296875 C 6.050781 0.296875 4.894531 0.0078125 3.90625 -0.5625 C 2.914062 -1.144531 2.144531 -1.953125 1.59375 -2.984375 C 1.050781 -4.023438 0.78125 -5.222656 0.78125 -6.578125 C 0.78125 -7.953125 1.050781 -9.15625 1.59375 -10.1875 C 2.144531 -11.226562 2.914062 -12.035156 3.90625 -12.609375 C 4.894531 -13.191406 6.050781 -13.484375 7.375 -13.484375 C 8.21875 -13.484375 9 -13.359375 9.71875 -13.109375 C 10.4375 -12.867188 11.0625 -12.523438 11.59375 -12.078125 C 12.132812 -11.628906 12.566406 -11.097656 12.890625 -10.484375 C 13.222656 -9.867188 13.425781 -9.1875 13.5 -8.4375 L 10 -8.296875 C 9.945312 -8.640625 9.847656 -8.945312 9.703125 -9.21875 C 9.566406 -9.5 9.390625 -9.738281 9.171875 -9.9375 C 8.953125 -10.132812 8.695312 -10.285156 8.40625 -10.390625 C 8.113281 -10.492188 7.785156 -10.546875 7.421875 -10.546875 C 6.796875 -10.546875 6.265625 -10.382812 5.828125 -10.0625 C 5.390625 -9.738281 5.050781 -9.28125 4.8125 -8.6875 C 4.582031 -8.09375 4.46875 -7.390625 4.46875 -6.578125 C 4.46875 -5.785156 4.582031 -5.09375 4.8125 -4.5 C 5.050781 -3.914062 5.390625 -3.457031 5.828125 -3.125 C 6.265625 -2.800781 6.796875 -2.640625 7.421875 -2.640625 C 7.785156 -2.640625 8.109375 -2.691406 8.390625 -2.796875 C 8.679688 -2.910156 8.929688 -3.066406 9.140625 -3.265625 C 9.359375 -3.460938 9.535156 -3.703125 9.671875 -3.984375 C 9.816406 -4.265625 9.925781 -4.582031 10 -4.9375 L 13.515625 -4.796875 C 13.453125 -4.046875 13.257812 -3.359375 12.9375 -2.734375 C 12.613281 -2.117188 12.179688 -1.582031 11.640625 -1.125 C 11.097656 -0.675781 10.460938 -0.328125 9.734375 -0.078125 C 9.015625 0.171875 8.226562 0.296875 7.375 0.296875 Z M 7.375 0.296875 "/></g></g></g><g fill="#ffffff" fill-opacity="1"><g transform="translate(115.8375, 48.329007)"><g><path d="M 7.375 0.296875 C 6.03125 0.296875 4.863281 0.00390625 3.875 -0.578125 C 2.882812 -1.160156 2.117188 -1.96875 1.578125 -3 C 1.046875 -4.039062 0.78125 -5.234375 0.78125 -6.578125 C 0.78125 -7.929688 1.050781 -9.125 1.59375 -10.15625 C 2.144531 -11.195312 2.90625 -12.007812 3.875 -12.59375 C 4.84375 -13.1875 5.960938 -13.484375 7.234375 -13.484375 C 8.179688 -13.484375 9.046875 -13.320312 9.828125 -13 C 10.609375 -12.6875 11.285156 -12.226562 11.859375 -11.625 C 12.429688 -11.03125 12.875 -10.3125 13.1875 -9.46875 C 13.5 -8.632812 13.65625 -7.703125 13.65625 -6.671875 L 13.65625 -5.6875 L 2.125 -5.6875 L 2.125 -8 L 11.890625 -8 L 10.234375 -7.4375 C 10.234375 -8.113281 10.113281 -8.691406 9.875 -9.171875 C 9.644531 -9.660156 9.3125 -10.035156 8.875 -10.296875 C 8.4375 -10.566406 7.910156 -10.703125 7.296875 -10.703125 C 6.691406 -10.703125 6.164062 -10.566406 5.71875 -10.296875 C 5.28125 -10.035156 4.941406 -9.664062 4.703125 -9.1875 C 4.460938 -8.707031 4.34375 -8.132812 4.34375 -7.46875 L 4.34375 -5.875 C 4.34375 -5.164062 4.46875 -4.554688 4.71875 -4.046875 C 4.96875 -3.535156 5.328125 -3.140625 5.796875 -2.859375 C 6.265625 -2.585938 6.820312 -2.453125 7.46875 -2.453125 C 7.9375 -2.453125 8.351562 -2.519531 8.71875 -2.65625 C 9.082031 -2.789062 9.390625 -2.984375 9.640625 -3.234375 C 9.890625 -3.484375 10.070312 -3.773438 10.1875 -4.109375 L 13.515625 -3.96875 C 13.335938 -3.125 12.960938 -2.382812 12.390625 -1.75 C 11.828125 -1.113281 11.113281 -0.613281 10.25 -0.25 C 9.382812 0.113281 8.425781 0.296875 7.375 0.296875 Z M 7.375 0.296875 "/></g></g></g></g></g></svg>